<svg width="18" height="19" viewBox="0 0 18 19" fill="none" xmlns="http://www.w3.org/2000/svg">
<circle cx="9" cy="9" r="8.5" stroke="white"/>
<path d="M7.97727 11.7273V11.6591C7.98485 10.9356 8.06061 10.3598 8.20455 9.93182C8.34848 9.50379 8.55303 9.1572 8.81818 8.89205C9.08333 8.62689 9.40152 8.38258 9.77273 8.15909C9.99621 8.02273 10.197 7.86174 10.375 7.67614C10.553 7.48674 10.6932 7.26894 10.7955 7.02273C10.9015 6.77652 10.9545 6.50379 10.9545 6.20455C10.9545 5.83333 10.8674 5.51136 10.6932 5.23864C10.5189 4.96591 10.286 4.75568 9.99432 4.60795C9.70265 4.46023 9.37879 4.38636 9.02273 4.38636C8.71212 4.38636 8.41288 4.45076 8.125 4.57955C7.83712 4.70833 7.59659 4.91098 7.40341 5.1875C7.21023 5.46401 7.09848 5.82576 7.06818 6.27273H5.63636C5.66667 5.62879 5.83333 5.07765 6.13636 4.61932C6.44318 4.16098 6.84659 3.81061 7.34659 3.56818C7.85038 3.32576 8.40909 3.20455 9.02273 3.20455C9.68939 3.20455 10.2689 3.33712 10.7614 3.60227C11.2576 3.86742 11.6402 4.23106 11.9091 4.69318C12.1818 5.1553 12.3182 5.68182 12.3182 6.27273C12.3182 6.68939 12.2538 7.06629 12.125 7.40341C12 7.74053 11.8182 8.04167 11.5795 8.30682C11.3447 8.57197 11.0606 8.80682 10.7273 9.01136C10.3939 9.2197 10.1269 9.43939 9.92614 9.67045C9.72538 9.89773 9.57955 10.1686 9.48864 10.483C9.39773 10.7973 9.34848 11.1894 9.34091 11.6591V11.7273H7.97727ZM8.70455 15.0909C8.42424 15.0909 8.18371 14.9905 7.98295 14.7898C7.7822 14.589 7.68182 14.3485 7.68182 14.0682C7.68182 13.7879 7.7822 13.5473 7.98295 13.3466C8.18371 13.1458 8.42424 13.0455 8.70455 13.0455C8.98485 13.0455 9.22538 13.1458 9.42614 13.3466C9.62689 13.5473 9.72727 13.7879 9.72727 14.0682C9.72727 14.2538 9.67992 14.4242 9.58523 14.5795C9.49432 14.7348 9.37121 14.8598 9.21591 14.9545C9.06439 15.0455 8.89394 15.0909 8.70455 15.0909Z" fill="white"/>
</svg>
